<?xml version="1.0" encoding="UTF-8"?>
<svg id="Layer_1" data-name="Layer 1" xmlns="http://www.w3.org/2000/svg" version="1.1" viewBox="0 0 180 40">
  <defs>
    <style>
      .cls-1 {
        fill: #f0c64d;
      }

      .cls-1, .cls-2, .cls-3 {
        stroke-width: 0px;
      }

      .cls-2 {
        fill: #b5b5b5;
      }

      .cls-3 {
        fill: #f0c64e;
      }
    </style>
  </defs>
  <path class="cls-1" d="M105.8,30h-2.7v-5c.2,0,.3,0,.4,0,3.5,0,7,0,10.5,0,.8,0,1.6-.2,2.1-.9.7-.8.8-1.7.4-2.6-.4-.9-1.1-1.4-2.2-1.5-1.7,0-3.4,0-5.1,0-3.6,0-6.7-2.4-7.5-6-.7-3.2.9-6.7,3.9-8.3,1.1-.6,2.3-.9,3.6-.9,3.7,0,7.4,0,11.1,0,.1,0,.2,0,.3,0v5c-.1,0-.3,0-.4,0-3.6,0-7.2,0-10.8,0-.7,0-1.4.1-2,.7-.8.8-1,1.7-.6,2.7.3,1,1.1,1.6,2.1,1.6,1.7,0,3.4,0,5.1,0,1,0,1.9.1,2.8.5,2.7,1.1,4.4,3.1,4.8,6,.5,3.6-1.6,7-5,8.2-.8.3-1.7.4-2.6.4-2.7,0-5.5,0-8.3,0Z"/>
  <path class="cls-1" d="M130.4,11.4c1.1-.5,2.3-.9,3.5-.9,2.1,0,4,.5,5.8,1.7,2.1,1.5,3.3,3.6,3.8,6.1.5,2.8.1,5.5-1.4,7.9-1.3,2.1-3.2,3.3-5.6,3.9-2.4.6-4.5.1-6.6-1.1-.2-.1-.4-.2-.6-.3v8.4h-4.8V11.2c.6,0,1.1-.1,1.5.5.4.6,1,1.2,1.5,1.8.9-.8,1.9-1.5,3-2.1M135.6,25.3c1.2-.4,2-1.2,2.6-2.3.6-1.2.7-2.5.5-3.8-.2-1.1-.7-2-1.5-2.7-1.1-.9-2.3-1.3-3.7-1.1-1.3.1-2.4.7-3.2,1.7-1,1.3-1.2,2.8-.9,4.4.5,3,3.3,4.7,6.2,3.8Z"/>
  <path class="cls-2" d="M55.4,27.2v2.7c-.4,0-.7,0-1,0,0,0-.2,0-.2-.2-.5-.7-1-1.4-1.5-2.1,0,0-.1-.1-.2-.2-.4.3-.7.6-1.1.9-1.3,1-2.8,1.7-4.5,2-1.6.2-3.2,0-4.8-.6-1.1-.4-2.1-1.1-3-1.9-.9-.9-1.6-2-2.1-3.1-.6-1.4-.8-2.9-.7-4.4,0-2.3.7-4.4,2.2-6.2,1.5-1.8,3.4-2.9,5.7-3.3,2.8-.5,5.2.4,7.4,2.1.3.2.5.4.8.6,0,0,0,0,.1,0,.5-.6,1.1-1.2,1.6-1.9.2-.3.4-.4.7-.3.2,0,.4,0,.7,0v16M43.6,15.8c-.9.5-1.6,1.3-2,2.3-.5,1.2-.6,2.5-.3,3.8.6,2.7,2.9,4,5.4,3.6,2.3-.4,4-2.6,4-5,0-1.8-.8-3.2-2.2-4.3-.8-.6-1.7-.9-2.6-.9-.8,0-1.5.2-2.2.5Z"/>
  <path class="cls-2" d="M79.7,30h-6.5v-4.8c.2,0,.3,0,.5,0,3.5,0,6.9,0,10.4,0,.6,0,1.1-.3,1.2-.8.2-.7-.2-1.2-1-1.2-.8,0-1.5,0-2.3,0-.9,0-1.8,0-2.7,0-2.8,0-5.3-1.9-5.9-4.7-.7-3.3,1.5-6.7,5-7.2.3,0,.5,0,.8,0,3.1,0,6.2,0,9.3,0,.1,0,.2,0,.4,0v4.8c-.1,0-.3,0-.4,0-3.1,0-6.1,0-9.2,0-.9,0-1.4.8-1.1,1.6.2.4.6.7,1.1.7,1.5,0,3,0,4.5,0,1.1,0,2.1.1,3.1.6,1.8.8,2.9,2.2,3.2,4.1.4,2.7-.7,4.7-3,6.1-.8.5-1.8.8-2.7.8-1.5,0-3,0-4.6,0Z"/>
  <path class="cls-3" d="M171.5,28.3v1.6h-4.8c0-.1,0-.3,0-.4,0-3.4,0-6.8,0-10.2,0-1.9-1.2-3.3-3-3.6-2-.4-4.1,1.3-4.1,3.3,0,3.5,0,7,0,10.5,0,.1,0,.3,0,.5h-4.8V11.2c.3,0,.7,0,1,0,.1,0,.2.1.3.2.5.5.9,1.1,1.4,1.6,0,0,.2-.1.2-.2,1.6-1.3,3.4-2,5.4-2,4.1,0,7.4,2.8,8.2,6.7.1.6.2,1.1.2,1.7,0,3,0,6,0,9.1Z"/>
  <path class="cls-1" d="M29,31.7c.7,1.1,1.4,2.1,2.2,3.2-.2,0-.3,0-.4,0-1.7,0-3.3,0-5,0-.3,0-.4,0-.6-.3-.9-1.3-1.8-2.6-2.6-3.9-.1-.2-.3-.3-.5-.3-2.4.1-4.6-.4-6.7-1.5-.3-.1-.4-.3-.4-.6,0-1-.1-1.9-.2-2.9,0-.2,0-.3.3-.4,1,0,2.1-.2,3.1-.2.2,0,.4,0,.6,0,2.8,1,5.4.6,7.7-1.3,1.7-1.3,2.6-3,2.9-5.1.3-2.3-.3-4.4-1.7-6.2,0,0-.1-.2-.2-.3,1.2-.1,2.4-.2,3.5-.3,0-1.2-.2-2.3-.3-3.4h.1c3,3.2,4.2,6.9,3.5,11.2-.7,4.3-3.2,7.5-7.1,9.6.6.8,1.1,1.7,1.7,2.5Z"/>
  <path class="cls-2" d="M18.4,4.9c.9-.1,1.8-.3,2.7-.3,2.8-.2,5.3.6,7.6,2,.3.2.5.4.5.8,0,.7.1,1.5.2,2.2,0,.3,0,.6,0,.9-.6,0-1.2.1-1.8.2-.5,0-1,.1-1.5.1-.2,0-.4,0-.6-.1-.9-.5-1.8-.8-2.8-1-1.4-.2-2.8,0-4.1.5-2.6,1.1-4.3,3-4.9,5.8-.5,2.3,0,4.5,1.4,6.4.3.4.7.8,1.1,1.2-.5,0-1.1.1-1.6.2-.4,0-.9,0-1.3,0-.2,0-.3.1-.3.3,0,.7.1,1.5.2,2.2,0,.4,0,.9.1,1.4-.3-.2-.5-.4-.7-.6-1.9-1.8-3.3-4-3.9-6.7-.3-1.5-.4-3-.2-4.5.3-2.4,1.2-4.5,2.7-6.4,1.7-2.2,4-3.7,6.7-4.4.1,0,.2,0,.3,0Z"/>
  <path class="cls-2" d="M71.7,14.7v1.3c-.1,0-.3,0-.4,0-1.2,0-2.5,0-3.7,0-2.1-.1-3.8,1.7-3.8,3.7,0,3.2,0,6.5,0,9.7v.5h-4.8V11.2c.7-.2,1.1,0,1.5.5.4.6.8,1.1,1.2,1.7.2-.2.4-.3.6-.5,1.2-.9,2.6-1.5,4.2-1.6,1.7,0,3.4,0,5.1,0v3.4Z"/>
  <path class="cls-1" d="M146.2,26.9c0-5.2,0-10.4,0-15.6h4.8v18.7h-4.8c0-1,0-2,0-3.1Z"/>
  <path class="cls-3" d="M150.3,3.4c1.3.9,1.9,2.3,1.4,3.7-.6,1.7-2.5,2.6-4.1,2-1.7-.6-2.6-2.5-1.9-4.1.7-1.8,2.9-2.7,4.7-1.6Z"/>
</svg>